<?xml version="1.0" encoding="utf-8"?>
<!-- Generator: Adobe Illustrator 27.0.0, SVG Export Plug-In . SVG Version: 6.00 Build 0)  -->
<svg version="1.1" id="Layer_1" xmlns="http://www.w3.org/2000/svg" xmlns:xlink="http://www.w3.org/1999/xlink" x="0px" y="0px"
	 viewBox="0 0 398.7 139.1" style="enable-background:new 0 0 398.7 139.1;" xml:space="preserve">
<style type="text/css">
	.st0{fill:#E5F4FD;}
	.st1{fill:#FFFFFF;}
</style>
<g>
	<path class="st0" d="M341,73.6c-14.2-33.7-40.8-31.9-40.8-31.9S280.8,1.8,229.4,0c-35.8-1.2-53.5,29-61,47.4
		c-11.5-6.3-25.4-11.4-40.9-12c-43.4-1.8-56.7,38.1-56.7,38.1v65.6h327.8C401.3,76.2,341,73.6,341,73.6z"/>
	<path class="st1" d="M398.6,139.1L398.6,139.1c-7-47.8-63.8-50-63.8-50c-14.2-33.7-40.8-31.9-40.8-31.9s-19.5-39.9-70.9-41.6
		c-35.8-1.2-53.5,29-61,47.4c-11.5-6.3-25.4-11.4-40.9-12c-27.5-1.1-42.9,14.4-50.5,26v-3.5c0,0,13.3-39.9,56.7-38.1
		c15.5,0.6,29.4,5.7,40.9,12c7.5-18.5,25.2-48.7,61-47.4c51.4,1.8,70.9,41.6,70.9,41.6s26.6-1.8,40.8,31.9
		C341,73.6,401.3,76.2,398.6,139.1z"/>
	<path class="st1" d="M343.6,90.1c0,0-33.3-3-51.6,23.3c0,0,3.8-30.4,42.8-39.3L343.6,90.1z"/>
	<path class="st1" d="M110,93.8l-39.2,45.3H0c0,0,3.3-73,70.8-65.6l3.9,2L110,93.8z"/>
	<path class="st0" d="M110,93.8l-39.2,45.3H5.6c0.8-11.5,7.8-66.3,69.1-63.5L110,93.8z"/>
	<path class="st1" d="M47.2,78.9c0,0,32.1-8.3,57.2,21.4c0,0-9.1-22.5-33.5-26.8C58.3,74.8,51.7,76.8,47.2,78.9z"/>
</g>
</svg>
