<?xml version="1.0" encoding="utf-8"?>
<!-- Generator: Adobe Illustrator 27.0.0, SVG Export Plug-In . SVG Version: 6.00 Build 0)  -->
<svg version="1.1" id="Layer_1" xmlns="http://www.w3.org/2000/svg" xmlns:xlink="http://www.w3.org/1999/xlink" x="0px" y="0px"
	 viewBox="0 0 469.2 148.6" style="enable-background:new 0 0 469.2 148.6;" xml:space="preserve">
<style type="text/css">
	.st0{fill:#E5F4FD;}
	.st1{fill:#FFFFFF;}
</style>
<g>
	<g>
		<path class="st0" d="M407.7,78.5c-15.1-35.9-43.5-34-43.5-34S343.4,1.9,288.6,0c-38.2-1.3-57.1,30.9-65.1,50.6
			c-12.3-6.7-27.1-12.1-43.6-12.8c-46.3-1.9-60.5,40.6-60.5,40.6v69.9h349.7C472,81.3,407.7,78.5,407.7,78.5z"/>
		<path class="st1" d="M469.1,148.4L469.1,148.4c-7.4-51-68.1-53.4-68.1-53.4c-15.1-35.9-43.5-34-43.5-34S336.8,18.5,282,16.6
			c-38.2-1.3-57.1,30.9-65.1,50.6c-12.3-6.7-27.1-12.1-43.6-12.8c-29.3-1.2-45.8,15.4-53.9,27.8v-3.7c0,0,14.2-42.5,60.5-40.6
			c16.5,0.7,31.4,6.1,43.6,12.8c8-19.7,26.9-51.9,65.1-50.6c54.8,1.9,75.6,44.4,75.6,44.4s28.4-1.9,43.5,34
			C407.7,78.5,472,81.3,469.1,148.4z"/>
		<path class="st1" d="M410.4,96.2c0,0-35.5-3.2-55,24.8c0,0,4.1-32.5,45.7-41.9L410.4,96.2z"/>
	</g>
	<g>
		<path class="st0" d="M41.9,101c10.3-24.5,29.6-23.2,29.6-23.2s14.2-29,51.5-30.2c26-0.9,38.9,21,44.3,34.5
			c8.3-4.6,18.5-8.3,29.7-8.7c31.5-1.3,41.2,27.7,41.2,27.7v47.6H0.1C-1.9,102.9,41.9,101,41.9,101z"/>
		<path class="st1" d="M0.1,148.6L0.1,148.6c5.1-34.7,46.3-36.3,46.3-36.3C56.7,87.8,76,89.1,76,89.1s14.2-29,51.5-30.2
			c26-0.9,38.9,21,44.3,34.5c8.3-4.6,18.5-8.3,29.7-8.7c20-0.8,31.2,10.5,36.7,18.9V101c0,0-9.7-29-41.2-27.7
			c-11.3,0.5-21.4,4.2-29.7,8.7C161.9,68.6,149,46.7,123,47.6c-37.3,1.3-51.5,30.2-51.5,30.2S52.2,76.5,41.9,101
			C41.9,101-1.9,102.9,0.1,148.6z"/>
		<path class="st1" d="M40,113c0,0,24.2-2.2,37.5,16.9c0,0-2.8-22.1-31.1-28.5L40,113z"/>
	</g>
</g>
</svg>
